<?xml version="1.0" encoding="UTF-8" standalone="no"?>
<!-- Created with Inkscape (http://www.inkscape.org/) -->

<svg
   width="297mm"
   height="210mm"
   viewBox="0 0 297.00001 210"
   version="1.1"
   id="svg1"
   xml:space="preserve"
   inkscape:version="1.3.2 (091e20e, 2023-11-25, custom)"
   sodipodi:docname="LOGO REDONDO PETER PLANT NEGRO_VERDE.svg"
   inkscape:export-filename="LOGO REDONDO NEGRO.jpg"
   inkscape:export-xdpi="96"
   inkscape:export-ydpi="96"
   xmlns:inkscape="http://www.inkscape.org/namespaces/inkscape"
   xmlns:sodipodi="http://sodipodi.sourceforge.net/DTD/sodipodi-0.dtd"
   xmlns="http://www.w3.org/2000/svg"
   xmlns:svg="http://www.w3.org/2000/svg"><sodipodi:namedview
     id="namedview1"
     pagecolor="#ffffff"
     bordercolor="#000000"
     borderopacity="0.25"
     inkscape:showpageshadow="2"
     inkscape:pageopacity="0.0"
     inkscape:pagecheckerboard="0"
     inkscape:deskcolor="#d1d1d1"
     inkscape:document-units="mm"
     inkscape:zoom="1.0469406"
     inkscape:cx="411.19811"
     inkscape:cy="436.98754"
     inkscape:window-width="2560"
     inkscape:window-height="1027"
     inkscape:window-x="-8"
     inkscape:window-y="-8"
     inkscape:window-maximized="1"
     inkscape:current-layer="svg1"
     showguides="false"
     inkscape:export-bgcolor="#ffffff00" /><defs
     id="defs1"><rect
       x="476.62686"
       y="321.89029"
       width="121.30583"
       height="44.892708"
       id="rect9" /><rect
       x="419.31702"
       y="336.21774"
       width="153.7814"
       height="70.682137"
       id="rect8" /></defs><g
     id="g123"
     inkscape:label="fondo negro_verde"
     style="display:inline"
     transform="translate(27.460008,-29.284737)"><g
       inkscape:groupmode="layer"
       id="g118"
       inkscape:label="Layer 2 copia"
       style="display:inline;opacity:1"
       transform="translate(24.008446,-2.0217638)"><rect
         style="display:inline;opacity:1;fill:#008000;fill-opacity:1;stroke:none;stroke-width:0.822564;paint-order:markers fill stroke"
         id="rect1"
         width="20.72308"
         height="25.777494"
         x="68.945244"
         y="117.29687"
         inkscape:label="verde" /><path
         style="fill:#000000;fill-opacity:1;stroke:#000000;stroke-width:3.3357;stroke-dasharray:none;stroke-opacity:1;paint-order:markers fill stroke"
         d="m 340.99356,661.52565 c -18.9271,-5.26303 -34.38458,-12.71006 -48.89764,-23.55766 -55.37659,-41.39051 -73.60153,-115.43979 -43.73,-177.67821 6.97751,-14.53787 14.95187,-25.50954 28.0906,-38.64892 12.85541,-12.85603 22.271,-19.74776 36.83728,-26.96299 19.96294,-9.8884 36.21172,-13.95486 58.74259,-14.70107 18.71275,-0.61975 32.95013,1.36418 49.47714,6.89446 11.0676,3.70345 29.28081,12.76196 37.33098,18.56691 l 5.14161,3.70759 -4.18644,1.11696 c -14.20333,3.78948 -21.85575,6.90607 -28.98124,11.80312 l -7.53533,5.17873 -4.37097,-1.48246 c -2.79029,-0.94635 -9.72488,-1.68894 -19.17599,-2.05345 -13.97777,-0.53909 -15.05232,-0.71918 -19.23022,-3.2229 -3.49156,-2.09242 -4.5339,-2.36852 -4.9406,-1.30868 -0.40145,1.04616 -1.4296,1.16656 -4.6489,0.54439 -2.2734,-0.43937 -4.93506,-0.81757 -5.91483,-0.84045 -1.67449,-0.0391 -1.68879,0.0997 -0.23837,2.31336 l 1.54302,2.35496 -5.01503,0.6476 c -4.29631,0.55479 -5.66526,1.29284 -9.55207,5.1499 -4.84243,4.80537 -5.72183,6.81653 -2.6267,6.00713 2.42916,-0.63524 2.40343,-0.37915 -0.46607,4.64036 -1.87582,3.28128 -2.37884,5.50368 -2.38791,10.55014 -0.01,5.53098 0.27479,6.59372 2.11135,7.8801 2.82607,1.97947 3.39918,1.88188 3.8892,-0.66221 0.29792,-1.54677 0.45039,-1.27512 0.54401,0.9692 0.10104,2.42226 0.82301,3.54081 3.23436,5.01104 4.11045,2.5062 4.2189,2.46066 3.74793,-1.57357 -0.28139,-2.41029 -0.0765,-3.2701 0.66938,-2.80912 0.59119,0.36537 1.07488,1.94582 1.07488,3.51211 0,1.56629 0.94606,4.1274 2.10233,5.69135 2.01976,2.73186 2.04789,3.05749 0.71637,8.29076 -1.23916,4.8703 -1.71473,5.54072 -4.49023,6.33001 -4.08257,1.16099 -4.16578,4.23821 -0.19402,7.17466 2.07773,1.53614 2.74687,2.66653 2.33906,3.95143 -0.34892,1.09937 0.12152,2.49251 1.20887,3.57986 0.97906,0.97905 1.6036,2.30959 1.38787,2.95675 -0.21571,0.64715 0.66196,2.15363 1.9504,3.34771 1.28843,1.19407 2.65855,3.8614 3.04469,5.92737 0.38615,2.06598 1.14608,4.29361 1.68873,4.95028 1.48233,1.79379 9.28521,1.39781 13.92162,-0.70649 l 4.09482,-1.85849 0.95833,2.5206 c 0.52708,1.38633 0.82878,3.19326 0.67045,4.01541 -0.15832,0.82215 -5.44988,5.13488 -11.759,9.58383 -9.59222,6.76408 -12.31693,9.26945 -16.63488,15.2958 -3.34917,4.67427 -5.5726,8.94738 -6.32723,12.16 -0.6399,2.72427 -2.77355,7.93417 -4.74143,11.57757 -2.74178,5.07622 -3.42522,7.23298 -2.92436,9.22857 0.55197,2.19921 1.02178,2.51181 3.02094,2.01005 3.48485,-0.87464 3.67365,1.02299 0.80335,8.07399 -1.38451,3.4011 -2.79047,7.99449 -3.12435,10.20752 l -0.60704,4.02368 -11.58494,-5.36244 c -10.50128,-4.86084 -11.67578,-5.65843 -12.55606,-8.52665 -0.75352,-2.45519 -0.67246,-3.41206 0.36176,-4.27039 1.89855,-1.57566 1.63705,-5.6474 -0.57744,-8.99118 -2.5519,-3.85324 -2.63491,-12.65481 -0.14967,-15.87018 1.57053,-2.03194 4.92549,-10.50569 4.92549,-12.44049 0,-1.09353 -5.85372,-2.49179 -16.87502,-4.03092 -5.34121,-0.74588 -10.17673,-1.64382 -10.7456,-1.9954 -1.42528,-0.88087 -1.30135,-6.48232 0.1885,-8.51981 0.85481,-1.16901 2.50763,-1.6651 5.49219,-1.64842 2.79679,0.0156 6.41259,-0.97773 10.483,-2.87997 5.97614,-2.79284 6.40641,-3.23439 11.25817,-11.55306 2.7745,-4.75708 4.80868,-8.8851 4.52039,-9.17339 -0.72832,-0.72831 -10.59595,2.46053 -15.7836,5.10066 -4.17315,2.12382 -7.86679,5.53499 -12.37882,11.43212 l -2.19245,2.8655 0.67842,-4.77583 c 0.37314,-2.6267 1.45039,-6.53929 2.39391,-8.69465 1.5213,-3.47526 2.17241,-3.9919 5.75231,-4.56435 6.71183,-1.07326 9.42084,-3.12556 14.41546,-10.9209 5.77392,-9.01162 5.89608,-10.01519 1.1216,-9.21369 -7.09752,1.19148 -10.17592,2.67408 -14.24449,6.86033 -5.50158,5.66071 -6.44146,3.52345 -2.35209,-5.34854 3.31546,-7.19298 3.47416,-8.54089 1.61809,-13.74266 -1.49981,-4.20332 -7.32536,-14.07329 -8.30647,-14.07329 -0.79658,0 -4.65392,15.93525 -4.65283,19.22152 4.1e-4,1.24832 1.21888,4.84862 2.70771,8.00066 3.5096,7.43027 4.45475,14.93253 2.38537,18.93426 l -1.52822,2.95526 -3.67221,-7.29832 c -2.17697,-4.32662 -4.94471,-8.25853 -6.79742,-9.65653 -2.99893,-2.26292 -12.86881,-8.27775 -13.58316,-8.27775 -0.4576,0 0.33964,6.90142 1.51046,13.07547 1.2649,6.6702 3.65382,9.3886 11.68585,13.29756 3.72935,1.81495 7.12032,3.63961 7.53549,4.05478 0.41517,0.41518 0.23273,3.01683 -0.40542,5.78147 l -1.16029,5.02662 -2.70191,-5.34337 c -1.7038,-3.36947 -4.19437,-6.43242 -6.74199,-8.29143 -5.01749,-3.66129 -16.94279,-9.76335 -17.66641,-9.03973 -1.00311,1.00311 3.10908,11.4606 6.01511,15.29672 3.93197,5.19044 9.82854,9.15508 14.56017,9.78972 3.48371,0.46727 4.08924,0.94257 5.41178,4.24792 0.81904,2.04698 1.48917,4.54181 1.48917,5.54406 0,1.93649 0.82503,1.76314 -17.19295,3.6124 l -7.16373,0.73524 -0.47759,5.73098 c -0.41976,5.03713 -0.21738,5.98566 1.67154,7.8345 2.68453,2.62756 3.09717,10.22301 0.60729,11.17847 -1.14042,0.43762 -1.37578,1.27239 -0.90403,3.20648 0.35079,1.43815 0.60331,3.85777 0.56117,5.37693 -0.0421,1.51916 0.63172,3.54482 1.49746,4.50146 0.86575,0.95663 1.32563,2.38678 1.02197,3.17811 -0.30366,0.79132 0.0714,2.63408 0.83344,4.09502 0.76205,1.46094 1.38819,3.59439 1.39143,4.741 0.007,2.53095 0.0377,2.54032 16.72125,5.11463 12.19189,1.88124 13.79387,2.36388 18.14812,5.46763 5.6432,4.02252 25.37219,20.11292 33.21287,27.08745 l 5.51312,4.9041 3.69751,-4.18116 c 2.03363,-2.29965 4.78151,-5.47064 6.10639,-7.04666 1.32488,-1.57602 2.72159,-2.55351 3.10382,-2.17221 0.38222,0.38132 0.19813,1.29193 -0.4091,2.02361 -0.60723,0.73166 -1.93435,4.503 -2.94915,8.38076 -2.72823,10.42513 -10.86557,32.37267 -11.97375,32.29486 -0.52835,-0.0371 -5.25888,-1.26267 -10.51228,-2.72348 z"
         id="path116"
         transform="scale(0.26458333)" /><path
         style="fill:#000000;fill-opacity:1;stroke:#000000;stroke-width:3.3357;stroke-dasharray:none;stroke-opacity:1;paint-order:markers fill stroke"
         d="m 473.03322,616.97355 c -1.91846,-5.21907 -4.60814,-15.29185 -5.97707,-22.38394 -1.36893,-7.0921 -2.72653,-13.71217 -3.01689,-14.71128 -0.48696,-1.67565 -0.11185,-1.77362 4.83588,-1.26296 2.95009,0.30447 5.3638,0.29931 5.3638,-0.0115 0,-0.31079 -2.44309,-4.90034 -5.42909,-10.19901 -2.986,-5.29866 -6.98518,-13.71727 -8.88708,-18.708 l -3.45798,-9.07406 -7.5895,-4.90014 c -4.17423,-2.69507 -9.97882,-6.83158 -12.89909,-9.19224 -4.62391,-3.73784 -5.42567,-4.89359 -6.20856,-8.94974 -0.93041,-4.8204 -1.50559,-5.18639 -5.93289,-3.77512 -1.86061,0.59309 -2.37891,0.1874 -3.65136,-2.85802 -0.81563,-1.95206 -1.24987,-4.47795 -0.96497,-5.61307 0.43583,-1.73647 1.05833,-2.00076 3.92438,-1.66617 3.2276,0.3768 3.48738,0.19145 4.94979,-3.53148 1.04533,-2.66115 2.12283,-3.92915 3.33884,-3.92915 2.61867,0 3.09909,-2.28394 1.98091,-9.41732 -0.97236,-6.20315 -0.91468,-6.53226 2.61837,-14.93936 6.35918,-15.13202 7.26588,-22.31763 3.78437,-29.9911 -1.04848,-2.31091 -1.79123,-4.27608 -1.65056,-4.36704 0.14067,-0.091 2.35099,-1.36594 4.91182,-2.83329 7.0561,-4.04313 11.14932,-8.21195 15.87998,-16.17327 2.61474,-4.40041 4.93116,-7.24429 5.91419,-7.26091 2.11982,-0.0358 11.16798,7.91637 18.79198,16.51579 16.74556,18.88802 28.06901,41.66341 33.77195,67.92717 3.02818,13.94566 3.01619,41.62935 -0.0241,55.64123 -2.39033,11.01638 -6.48044,23.2077 -11.30815,33.70597 -4.36251,9.48664 -15.90359,26.60576 -23.4767,34.82346 l -6.10417,6.62373 z"
         id="path117"
         transform="scale(0.26458333)" /><path
         style="fill:#000000;fill-opacity:1;stroke:#000000;stroke-width:3.3357;stroke-dasharray:none;stroke-opacity:1;paint-order:markers fill stroke"
         d="m 431.20924,638.06678 -11.98687,-11.90261 4.71728,-1.69631 c 8.04947,-2.89455 9.52329,-8.27831 2.28708,-8.35453 -1.69899,-0.0179 -3.06193,-0.46236 -3.02877,-0.9877 0.0925,-1.46473 10.55586,-22.66939 12.25443,-24.83426 1.2947,-1.65013 1.62983,-1.71518 2.46051,-0.47758 3.22545,4.80546 17.90871,51.60655 16.76932,53.45012 -0.50265,0.81331 -10.31667,6.73741 -11.1248,6.71534 -0.19872,-0.005 -5.7554,-5.36604 -12.34818,-11.91247 z"
         id="path118"
         transform="scale(0.26458333)" /></g><g
       id="g120"
       inkscape:label="imagenes"
       style="display:inline"><g
         id="g119"
         style="display:inline"
         inkscape:label="circulos" /><circle
         style="display:inline;fill:none;fill-rule:evenodd;stroke:#000000;stroke-width:0.876;stroke-dasharray:none;stroke-opacity:1"
         id="circle119"
         cx="-0.70419514"
         cy="183.79857"
         r="57.247566"
         transform="matrix(-0.74146911,0.67098701,0.67098701,0.74146911,0,0)"
         inkscape:label="circulo grande" /></g><g
       id="g121"
       inkscape:label="Ornamentales"
       transform="matrix(0.8600064,0,0,0.8600064,17.327665,20.615193)"
       style="display:inline"><path
         id="circle120"
         style="display:none;fill:none;fill-rule:evenodd;stroke:#000000;stroke-width:0.94292"
         inkscape:label="trayecto ornamentales"
         transform="matrix(-0.90083396,0.43416377,0.43416377,0.90083396,0,0)"
         d="M 8.5440369,174.95998 A 61.620876,61.620876 0 0 1 -53.076839,236.58085 61.620876,61.620876 0 0 1 -114.69772,174.95998 61.620876,61.620876 0 0 1 -53.076839,113.3391 61.620876,61.620876 0 0 1 8.5440369,174.95998 Z" /><path
         id="path120"
         style="font-style:normal;font-variant:normal;font-weight:normal;font-stretch:normal;font-size:11.2889px;font-family:Broadway;-inkscape-font-specification:'Broadway, Normal';font-variant-ligatures:normal;font-variant-caps:normal;font-variant-numeric:normal;font-variant-east-asian:normal;letter-spacing:0px;word-spacing:-0.0582083px;fill:#000000;fill-opacity:1;stroke:#030000;stroke-width:0.923999;stroke-dasharray:none;stroke-opacity:1;paint-order:markers fill stroke"
         d="m 173.45973,154.90125 c -0.21337,0.0168 -0.48716,0.18286 -0.82021,0.49873 -0.56619,0.54038 -0.99052,1.10719 -1.27387,1.6999 -0.38472,0.80474 -0.53299,1.61023 -0.44466,2.41616 0.0516,0.48644 0.19309,0.9149 0.42423,1.28589 0.22862,0.36386 0.52369,0.63241 0.8851,0.80518 0.41442,0.19812 0.92033,0.25349 1.51843,0.16645 0.59559,-0.0942 1.69523,-0.39453 3.29886,-0.90073 0.66051,-0.2052 1.10171,-0.3286 1.32314,-0.37074 0.21892,-0.0493 0.38609,-0.0463 0.50174,0.009 0.11566,0.0553 0.18303,0.14349 0.2019,0.26499 0.0164,0.11438 -0.0181,0.26095 -0.10335,0.43925 -0.1843,0.3855 -0.46186,0.76175 -0.83283,1.12906 -0.37578,0.365 -0.73451,0.61363 -1.07618,0.7463 -0.21598,0.0803 -0.34691,0.16861 -0.39298,0.26499 -0.085,0.19023 -0.0389,0.32817 0.13941,0.41341 0.0964,0.0461 0.20389,0.0499 0.32267,0.012 0.12108,-0.0428 0.29861,-0.14099 0.53238,-0.29563 0.77653,-0.53455 1.39279,-1.27936 1.84893,-2.23349 0.41006,-0.85775 0.56531,-1.6715 0.46568,-2.44139 -0.11453,-0.93686 -0.54259,-1.58248 -1.28469,-1.93725 -0.47224,-0.22577 -0.97173,-0.30765 -1.49861,-0.24576 -0.30753,0.0365 -0.59002,0.0939 -0.84664,0.17245 -0.25914,0.0715 -0.82275,0.26648 -1.69149,0.58526 -0.89011,0.32633 -1.5088,0.53091 -1.85613,0.6135 -0.34503,0.0778 -0.59929,0.0777 -0.76313,-6e-4 -0.13974,-0.0668 -0.21816,-0.16938 -0.23494,-0.30765 -0.0145,-0.14308 0.029,-0.32096 0.13039,-0.53298 0.28796,-0.60236 0.73676,-1.07096 1.34718,-1.40667 0.29809,-0.16535 0.46939,-0.29421 0.51316,-0.38577 0.0369,-0.0771 0.0398,-0.15789 0.01,-0.24336 -0.0279,-0.0903 -0.0779,-0.15292 -0.15022,-0.18748 -0.0578,-0.0276 -0.12176,-0.0386 -0.19288,-0.033 z m -97.801129,3.24417 c -1.009924,0.0491 -1.931419,0.32908 -2.764668,0.84004 -0.664779,0.40764 -1.228431,0.93492 -1.690288,1.58152 -0.757476,1.05344 -1.110003,2.25642 -1.057556,3.60891 0.03548,1.01831 0.312894,1.95081 0.832225,2.79772 0.491409,0.80138 1.149247,1.45069 1.973904,1.94747 1.123198,0.6771 2.325106,0.94547 3.605306,0.80578 0.857433,-0.0935 1.64155,-0.3576 2.351861,-0.79316 0.883336,-0.54167 1.573438,-1.25029 2.070647,-2.12533 0.619676,-1.09425 0.853551,-2.27147 0.701232,-3.5314 -0.105369,-0.8564 -0.379055,-1.64386 -0.820207,-2.36328 -0.462457,-0.74394 -1.045435,-1.34822 -1.749775,-1.81226 -1.060182,-0.69696 -2.211098,-1.01563 -3.452681,-0.95601 z m 4.414096,2.50929 c 0.125043,0.14261 0.237782,0.29576 0.338298,0.45968 0.432775,0.70576 0.694377,1.46943 0.784755,2.29117 0.125987,1.09438 -0.08612,2.13285 -0.636337,3.11559 -0.448455,0.80129 -1.068668,1.44481 -1.860938,1.93064 -0.601033,0.36855 -1.251414,0.6107 -1.951071,0.72647 -0.999616,0.16812 -1.976603,0.0465 -2.930513,-0.36474 -1.041325,-0.45164 -1.870007,-1.18034 -2.48706,-2.18662 -0.08656,-0.14115 -0.163729,-0.29773 -0.231341,-0.46929 l 0.82862,-0.51736 3.674407,-2.30019 z m 90.779193,2.07666 c -0.54024,-0.0218 -1.08448,0.0619 -1.632,0.25117 -0.93605,0.32349 -1.68694,0.88979 -2.25272,1.6999 -0.36393,0.52109 -0.60751,1.09383 -0.73067,1.71793 -0.1249,0.63592 -0.11617,1.26771 0.0258,1.89459 0.11872,0.53895 0.34694,1.05641 0.6844,1.55268 0.33308,0.49322 0.72713,0.89873 1.18254,1.21679 0.47293,0.33029 1.01485,0.56199 1.6254,0.69522 0.69458,0.15284 1.37082,0.1501 2.02918,-0.009 1.12469,-0.27644 2.01291,-0.88135 2.66432,-1.81407 0.37923,-0.54299 0.64279,-1.18645 0.79077,-1.93004 0.15103,-0.74796 0.1618,-1.45326 0.0324,-2.11691 -0.106,-0.51053 -0.25112,-0.83057 -0.43504,-0.95902 -0.0832,-0.0581 -0.16798,-0.0812 -0.25417,-0.0697 -0.0906,0.008 -0.16132,0.0499 -0.21331,0.12439 -0.0428,0.0613 -0.0612,0.13318 -0.0541,0.21631 0.007,0.0831 0.0503,0.24091 0.12979,0.4723 0.2366,0.70598 0.32076,1.40636 0.25237,2.10129 -0.0697,0.68749 -0.28158,1.28508 -0.63634,1.79304 -0.23854,0.34156 -0.49086,0.48797 -0.75651,0.43925 -0.13874,-0.0252 -0.40507,-0.17542 -0.79918,-0.45067 l -2.03639,-1.42229 0.6153,-0.90914 1.37002,-1.9751 1.06897,-1.53046 c -0.88018,-0.62286 -1.77053,-0.95205 -2.67093,-0.98845 z m -2.60844,1.52324 c 0.10676,-0.004 0.20452,0.0191 0.29383,0.0685 0.0849,0.0463 0.33638,0.2092 0.75411,0.48792 l 1.91803,1.33937 -0.58827,0.89832 -0.58586,0.78295 -1.91802,-1.33937 c -0.4992,-0.34864 -0.78686,-0.59461 -0.86227,-0.73848 -0.12977,-0.23396 -0.06,-0.54362 0.2091,-0.92897 0.26301,-0.37659 0.52294,-0.5669 0.77935,-0.57024 z m -85.766014,3.50255 -0.337096,0.32028 -2.389116,2.23108 -2.184214,1.9685 -1.210782,1.09781 -0.330486,0.29203 2.776085,3.03086 2.330229,-2.1776 2.279154,-2.06644 c 0.748443,-0.0844 1.340307,-0.0829 1.775012,0.004 0.434705,0.0871 0.781587,0.27283 1.041333,0.55642 0.10462,0.11422 0.194978,0.29594 0.270999,0.545 0.04653,0.1457 0.10751,0.25979 0.183269,0.34251 0.119051,0.12997 0.256202,0.20362 0.410404,0.22172 0.154203,0.0181 0.28837,-0.0246 0.402593,-0.12919 0.145732,-0.13348 0.198786,-0.31689 0.159835,-0.5492 -0.03534,-0.22838 -0.153699,-0.45243 -0.355724,-0.673 -0.331897,-0.36236 -0.82928,-0.61685 -1.491995,-0.76312 -0.28838,-0.0618 -0.880218,-0.0989 -1.775613,-0.11176 l 1.21679,-1.11524 z m 79.519224,0.15804 -2.79652,2.95635 0.38998,0.38036 1.31473,1.21018 1.18675,1.11224 2.18361,2.08687 1.67046,1.59174 0.91455,0.8869 0.2734,0.25899 2.80793,-2.96837 -0.22713,-0.21512 -2.89687,-2.69617 -1.60135,-1.53706 -0.8791,-0.84244 -2.0376,-1.94987 z m -73.953834,5.97399 -1.016696,1.41087 -1.050346,1.45535 -1.255848,1.65183 -1.890983,2.50809 3.288039,2.43959 0.198893,-0.28122 1.383836,-1.906 1.03953,-1.37362 1.354393,-1.79845 0.202498,-0.25898 c 0.461331,-0.0301 0.85855,-0.0145 1.192155,0.0469 0.333604,0.0613 0.605832,0.16971 0.816,0.32568 0.227325,0.1687 0.324057,0.34721 0.290828,0.53539 -0.01661,0.0941 -0.05582,0.18796 -0.118374,0.28121 -0.05508,0.0922 -0.250774,0.3689 -0.587064,0.83102 l -1.464355,1.98653 -0.993261,1.29851 -1.353192,1.769 3.27482,2.43058 1.093008,-1.51363 2.223873,-2.96897 c 0.522008,-0.70342 0.841354,-1.25124 0.959011,-1.64282 0.125129,-0.39268 0.107351,-0.81194 -0.05408,-1.25765 -0.213442,-0.59072 -0.624556,-1.11212 -1.233615,-1.5641 -0.45465,-0.33739 -0.98909,-0.59398 -1.603159,-0.77033 -0.610887,-0.18064 -1.299222,-0.27923 -2.065239,-0.29564 l 0.663376,-0.89411 z m 71.413894,0.82261 c -1.00834,0.0149 -2.29928,0.62011 -3.8727,1.81587 -0.95681,0.72715 -1.63337,1.45615 -2.03039,2.18722 -0.41709,0.76645 -0.52387,1.28358 -0.32027,1.55148 0.0679,0.0893 0.16382,0.14073 0.28783,0.15383 0.124,0.0131 0.23448,-0.0176 0.33228,-0.0919 0.13183,-0.10018 0.20984,-0.33347 0.23315,-0.70003 0.0583,-0.90304 0.52113,-1.68416 1.38864,-2.34344 0.56133,-0.4266 1.00891,-0.57907 1.34298,-0.45728 0.13812,0.0493 0.26066,0.13094 0.36714,0.24456 0.10648,0.11363 0.36706,0.4384 0.78175,0.97524 l 0.59127,0.77814 c -0.49397,0.10035 -0.90568,0.22544 -1.23482,0.37495 -0.33237,0.14526 -0.68103,0.35721 -1.04674,0.63514 -0.89302,0.67868 -1.45253,1.49575 -1.67827,2.45221 -0.19886,0.81527 -0.0384,1.56566 0.48191,2.25031 0.58819,0.77395 1.38758,1.15932 2.39813,1.1561 0.77445,-0.005 1.47849,-0.24854 2.11211,-0.73007 0.37422,-0.2844 0.70133,-0.63963 0.98064,-1.06657 0.28356,-0.43018 0.51901,-0.92797 0.70664,-1.4932 l 0.50895,0.66938 3.57226,-2.71419 c -0.36418,-0.15258 -0.65878,-0.32804 -0.8833,-0.52637 -0.22351,-0.20583 -0.50456,-0.54922 -0.84304,-1.02992 l -1.92464,-2.53273 c -0.49769,-0.65488 -0.88773,-1.07971 -1.16992,-1.27447 -0.28219,-0.19477 -0.64257,-0.28915 -1.08159,-0.28422 z m -11.22512,3.55783 c -0.73122,1.14608 -1.66871,2.33509 -2.81214,3.56745 l 0.41461,0.80459 -0.53839,0.23254 c -0.0452,0.0173 -0.11968,0.0525 -0.22413,0.10636 -0.22313,0.11502 -0.2906,0.25812 -0.2025,0.42903 0.0906,0.17566 0.25229,0.20343 0.48492,0.0835 0.0807,-0.0416 0.17763,-0.0976 0.29143,-0.16825 0.13753,-0.0829 0.23013,-0.13656 0.2776,-0.16103 0.0285,-0.0147 0.0771,-0.0366 0.14602,-0.0661 l 1.31413,2.54955 0.76733,1.50582 0.27521,0.53418 c 0.28877,0.56022 0.56063,0.97645 0.8148,1.24804 0.25172,0.26684 0.56244,0.46688 0.93197,0.60089 0.72236,0.27061 1.50373,0.18979 2.34405,-0.24336 0.89254,-0.46008 1.4927,-1.07957 1.80085,-1.85734 0.1251,-0.31686 0.19975,-0.6496 0.22413,-0.99867 0.0219,-0.35381 -0.0134,-0.62117 -0.10636,-0.80158 -0.093,-0.1804 -0.22014,-0.22861 -0.38156,-0.14541 -0.13768,0.071 -0.18585,0.26993 -0.14361,0.59668 0.0401,0.34589 0.0168,0.66713 -0.0703,0.96442 -0.0919,0.29973 -0.22326,0.49355 -0.39418,0.58165 -0.12818,0.0661 -0.25416,0.0441 -0.37735,-0.0667 -0.12319,-0.11076 -0.27382,-0.33964 -0.45247,-0.68621 l -0.78475,-1.47037 -1.45655,-2.75505 -0.70483,-1.38564 0.2061,-0.10636 c 0.16142,-0.0832 0.43708,-0.2071 0.82682,-0.37195 0.10459,-0.0419 0.19011,-0.0799 0.25658,-0.11416 0.21838,-0.11257 0.28222,-0.25698 0.19168,-0.43264 -0.0979,-0.1899 -0.25139,-0.23086 -0.46028,-0.12318 -0.0427,0.022 -0.0909,0.05 -0.14541,0.0841 -0.31995,0.20699 -0.68658,0.41682 -1.09962,0.62973 l -0.10696,-0.22413 z m 10.68192,1.01069 1.9703,2.61866 c -0.0544,0.34325 -0.15755,0.66654 -0.30945,0.96982 -0.15089,0.2958 -0.32416,0.51772 -0.51977,0.66638 -0.24664,0.18745 -0.46558,0.19935 -0.65677,0.0361 -0.0719,-0.0594 -0.23796,-0.25495 -0.49753,-0.58767 l -1.1585,-1.52444 c -0.38782,-0.5103 -0.60107,-0.8348 -0.63934,-0.97343 -0.0721,-0.25379 0.0153,-0.47473 0.26198,-0.66218 0.29342,-0.22299 0.80966,-0.4039 1.54908,-0.5432 z m -59.842665,2.46723 c -0.87259,-0.002 -1.378074,0.15123 -1.516632,0.45788 -0.04619,0.10221 -0.04575,0.21041 0.0018,0.32568 0.04756,0.11526 0.127203,0.19818 0.239152,0.24876 0.150888,0.0682 0.393073,0.0256 0.726469,-0.12859 0.82179,-0.37889 1.729066,-0.34411 2.722006,0.10456 0.64249,0.29031 0.98987,0.61147 1.04194,0.96321 0.0224,0.14494 0.009,0.2909 -0.0403,0.43865 -0.0492,0.14775 -0.21107,0.53214 -0.48552,1.1525 l -0.40199,0.89051 c -0.32355,-0.38651 -0.6299,-0.68857 -0.91815,-0.90674 -0.28606,-0.22303 -0.638367,-0.42917 -1.056959,-0.61831 -1.022143,-0.46186 -2.007265,-0.56423 -2.95575,-0.30705 -0.81155,0.21355 -1.394481,0.71196 -1.748573,1.4956 -0.400277,0.88586 -0.358061,1.77254 0.126186,2.65952 0.373271,0.67858 0.922389,1.18172 1.647625,1.50942 0.428326,0.19354 0.897028,0.31113 1.405468,0.35332 0.513307,0.0444 1.063074,0.0148 1.649427,-0.0895 l -0.34671,0.76613 4.088416,1.84772 c -0.0393,-0.39288 -0.0248,-0.73501 0.0427,-1.02691 0.0745,-0.29456 0.24214,-0.7052 0.50354,-1.23181 l 1.30993,-2.89867 c 0.33869,-0.74957 0.52621,-1.29471 0.56302,-1.63561 0.0368,-0.34089 -0.0515,-0.70334 -0.26499,-1.087 -0.49351,-0.87944 -1.64094,-1.72618 -3.44186,-2.53993 -1.09516,-0.49485 -2.058337,-0.7425 -2.890258,-0.7433 z m 43.461355,2.28156 c -0.33184,0.0107 -0.67867,0.0712 -1.04133,0.18207 -0.54143,0.16552 -1.06542,0.4428 -1.57191,0.83222 -0.50805,0.38432 -0.99635,0.87994 -1.46436,1.48659 l -0.32568,-1.06477 -3.92257,1.19937 0.53118,1.65544 0.54741,1.70891 0.58406,1.99133 0.89532,3.01043 3.91476,-1.19696 -0.10816,-0.32688 -0.71145,-2.24551 -0.48852,-1.65183 -0.64294,-2.15777 -0.0883,-0.31667 c 0.24966,-0.3891 0.49827,-0.69934 0.74569,-0.93137 0.24742,-0.23203 0.49602,-0.38616 0.7463,-0.46268 0.27072,-0.0828 0.4722,-0.0549 0.60389,0.0835 0.0659,0.0692 0.11773,0.15629 0.15563,0.26199 0.0414,0.099 0.14808,0.42125 0.32027,0.96622 l 0.72947,2.35727 0.45487,1.57011 0.62012,2.13975 3.89973,-1.19276 -0.56843,-1.77801 -1.06958,-3.55183 c -0.25609,-0.83768 -0.50647,-1.42021 -0.7517,-1.74737 -0.24169,-0.33383 -0.58985,-0.56831 -1.04434,-0.70304 -0.30103,-0.0895 -0.61755,-0.12846 -0.9494,-0.11777 z m -35.46058,1.4241 -0.44646,3.02785 -0.30825,1.8982 -0.31847,1.96128 -0.24336,1.43792 -0.0499,0.31606 4.05957,0.64235 0.52217,-3.55964 0.56123,-3.34212 c 0.41768,-0.24758 0.78816,-0.42141 1.11223,-0.52157 0.33019,-0.1046 0.61719,-0.13752 0.85987,-0.0991 0.32181,0.0509 0.4934,0.1942 0.51556,0.43023 0.0116,0.13162 -0.0792,0.80945 -0.2728,2.03339 l -0.6117,3.71527 -0.28903,1.72274 4.05176,0.64054 c 0.0579,-0.53701 0.1387,-1.13226 0.24216,-1.78643 l 0.36714,-2.22147 0.32868,-1.97571 c 0.0609,-0.38512 0.0948,-0.68239 0.10095,-0.89231 0.41325,-0.25369 0.7876,-0.43282 1.12306,-0.53659 0.34073,-0.10293 0.64295,-0.13305 0.90673,-0.0913 0.24795,0.0392 0.40657,0.14518 0.4765,0.31846 0.0699,0.17329 0.0694,0.46797 -0.002,0.88391 -0.0153,0.0625 -0.05,0.28136 -0.10395,0.65676 l -0.15323,1.02211 -0.43744,2.51049 -0.42723,2.49547 4.05957,0.64175 0.0433,-0.32568 0.37735,-2.64149 0.0775,-0.49032 0.36234,-2.08447 c 0.0943,-0.59614 0.13859,-1.04834 0.13339,-1.3574 -0.004,-0.31432 -0.057,-0.59823 -0.15743,-0.85205 -0.35215,-0.85061 -1.13233,-1.37183 -2.34044,-1.5629 -0.65945,-0.1043 -1.30597,-0.0848 -1.93966,0.0583 -0.62758,0.13867 -1.32602,0.41733 -2.09528,0.83643 -0.10874,-0.40655 -0.25709,-0.71346 -0.44586,-0.92176 -0.46802,-0.52826 -1.14275,-0.86233 -2.02377,-1.00167 -0.5856,-0.0926 -1.19117,-0.0746 -1.81708,0.0535 -0.6198,0.12368 -1.26067,0.35994 -1.92163,0.70964 l 0.17546,-1.10743 z m -7.548309,0.0991 c 0.117772,-0.0142 0.247018,0.0101 0.388171,0.0739 0.335848,0.15175 0.741458,0.52007 1.216188,1.10383 l -1.364005,2.97918 c -0.327735,0.11566 -0.661452,0.17895 -1.000472,0.18988 -0.331954,0.008 -0.609529,-0.0382 -0.833427,-0.13941 -0.282306,-0.12756 -0.397403,-0.31413 -0.344908,-0.56002 0.01792,-0.0915 0.111133,-0.33074 0.280013,-0.71746 l 0.78836,-1.74496 c 0.263919,-0.58409 0.447955,-0.92602 0.551611,-1.02571 0.09439,-0.0922 0.200697,-0.14505 0.318469,-0.15924 z m 30.097089,1.40427 c -0.23776,-0.0135 -0.47939,-0.008 -0.72526,0.0156 -0.63264,0.0613 -1.22629,0.24747 -1.78103,0.55882 -0.56485,0.31771 -1.03934,0.73375 -1.42409,1.24864 -0.33297,0.44011 -0.57875,0.94983 -0.73729,1.52865 -0.15905,0.57351 -0.21223,1.1368 -0.15863,1.68969 0.0557,0.57415 0.23088,1.13632 0.52577,1.68728 0.33452,0.62762 0.77602,1.14066 1.32435,1.53826 0.94025,0.67622 1.97662,0.95943 3.10898,0.84966 0.65921,-0.0639 1.31998,-0.28074 1.98171,-0.65076 0.66706,-0.37054 1.21107,-0.82046 1.63201,-1.34959 0.31959,-0.41198 0.4687,-0.72972 0.44705,-0.953 -0.01,-0.10101 -0.0471,-0.18043 -0.11176,-0.23855 -0.0652,-0.0634 -0.14337,-0.0911 -0.23374,-0.0823 -0.0744,0.007 -0.14086,0.0404 -0.1995,0.0997 -0.0586,0.0593 -0.15013,0.19438 -0.2746,0.405 -0.38353,0.63819 -0.86184,1.1567 -1.43491,1.55569 -0.56827,0.39316 -1.16073,0.61982 -1.77742,0.6796 -0.41467,0.0402 -0.68967,-0.0565 -0.82501,-0.29023 -0.0709,-0.12192 -0.12968,-0.42226 -0.17606,-0.90072 l -0.23915,-2.47204 1.0906,-0.12198 2.39152,-0.23975 1.85793,-0.18027 c -0.15582,-1.71818 -0.89947,-2.96875 -2.23108,-3.75192 -0.64021,-0.37663 -1.31711,-0.58499 -2.03039,-0.62552 z m -0.51075,0.48551 c 0.4572,-0.0443 0.77023,0.03 0.93918,0.22293 0.072,0.0789 0.11838,0.16862 0.13881,0.2686 0.0199,0.0947 0.0593,0.39121 0.11837,0.88991 l 0.22593,2.32842 -1.06536,0.1352 -0.97584,0.0625 -0.22593,-2.32842 c -0.0587,-0.60606 -0.0581,-0.98432 0.002,-1.13507 0.0938,-0.25057 0.37461,-0.3987 0.84244,-0.44406 z"
         inkscape:label="path120" /></g><g
       id="g122"
       inkscape:label="Peter Plant"
       style="display:inline"><path
         id="ellipse121"
         style="display:none;fill:none;fill-rule:evenodd;stroke:#000000;stroke-width:0.939072"
         inkscape:label="trayecto peter plant"
         transform="rotate(-166.57083)"
         d="m -110.86923,-103.86897 a 41.185822,41.321274 0 0 1 -41.18582,41.321271 41.185822,41.321274 0 0 1 -41.18583,-41.321271 41.185822,41.321274 0 0 1 41.18583,-41.32128 41.185822,41.321274 0 0 1 41.18582,41.32128 z" /><path
         style="font-size:17.6389px;font-family:Broadway;-inkscape-font-specification:'Broadway, Normal';letter-spacing:0px;word-spacing:2.63653px;stroke:#030000;stroke-width:0.924;paint-order:markers fill stroke"
         d="m 83.667473,120.01963 0.22245,0.0931 1.5287,0.63063 0.198616,0.0831 -2.028817,4.84624 -0.481298,-0.21083 -5.568464,-2.37785 -2.666818,-1.07908 -1.806763,-0.74704 -0.321112,-0.12509 1.51995,-3.63071 q 0.93126,-2.22451 1.600866,-3.28871 0.672932,-1.07216 1.491442,-1.64453 1.098429,-0.77264 2.513705,-0.85242 1.080672,-0.0611 2.065809,0.35129 1.064584,0.44568 1.827625,1.34401 0.913801,1.07349 1.089102,2.41671 0.170682,1.33195 -0.421333,2.7461 -0.219512,0.52435 -0.76366,1.445 z m -8.354452,-3.50682 0.532292,0.22284 5.293726,2.2535 1.984871,0.81226 q 0.429586,-0.55778 0.848654,-1.55881 0.37583,-0.89774 0.354239,-1.84982 -0.02159,-0.95208 -0.440237,-1.78093 -0.708521,-1.40772 -2.170338,-2.01969 -1.390315,-0.58204 -2.910916,-0.11685 -1.081788,0.33143 -1.889591,1.23508 -0.807803,0.90365 -1.502922,2.56408 z m 11.157345,-12.24747 q 0.291581,0.26878 0.725883,0.63553 l 0.39482,0.33341 4.579327,3.78816 1.857451,-2.25295 1.313904,-1.59596 q 0.327854,-0.38823 0.564746,-0.18819 0.19741,0.16671 0.05703,0.38634 -0.03232,0.0516 -0.448058,0.55729 l -6.312584,7.47525 -0.33662,-0.29553 -2.192274,-1.86257 -2.333532,-2.01568 -4.130841,-3.39816 5.890263,-6.975151 q 0.394537,-0.467203 0.469846,-0.516336 0.16729,-0.118006 0.351539,0.03758 0.230312,0.19449 -0.01419,0.484025 l -0.0389,0.04606 -2.830045,3.257842 2.017676,1.74895 0.612277,-0.7117 1.905416,-2.33646 0.421297,-0.51224 q 0.233388,-0.27637 0.351689,-0.32302 0.123859,-0.05323 0.262046,0.0635 0.256633,0.21671 -0.11012,0.65102 l -0.452152,0.50873 z m 10.965586,-13.343365 1.439627,2.279607 1.378611,2.154853 3.26526,4.944805 -4.396746,2.8759 -3.71428,-5.772885 -1.299276,-1.939164 -1.105979,-1.643645 -0.937282,0.643949 -1.343412,0.919888 -0.197103,0.139216 q -0.345973,0.226301 -0.515698,-0.03318 -0.150867,-0.230649 0.03209,-0.391489 0.04823,-0.05213 0.339038,-0.252638 l 8.843941,-5.784798 q 0.466012,-0.294526 0.576078,-0.315062 0.181873,-0.03663 0.304449,0.150772 0.1603,0.245065 -0.207298,0.485509 l -0.64122,0.388546 -1.676647,1.055523 z M 110.2002,88.975804 q 0.0961,0.384744 0.25764,0.929744 l 0.14687,0.495455 1.7468,5.68059 2.78953,-0.862844 1.97447,-0.612251 q 0.4872,-0.144422 0.57532,0.152851 0.0734,0.247727 -0.1645,0.354192 -0.0554,0.02539 -0.68048,0.219685 l -9.3806,2.780732 -0.11903,-0.431842 -0.80932,-2.760477 -0.84329,-2.966002 -1.58616,-5.10837 8.75302,-2.594697 q 0.58629,-0.173796 0.67621,-0.173502 0.20461,-0.0068 0.27315,0.224458 0.0857,0.289015 -0.27766,0.396719 l -0.0578,0.01714 -4.15418,1.168558 0.7258,2.569639 0.90252,-0.258555 2.87546,-0.906285 0.63339,-0.196741 q 0.34682,-0.102808 0.4713,-0.07683 0.13274,0.02353 0.18414,0.196942 0.0955,0.322046 -0.44953,0.483602 l -0.65724,0.176864 z m 15.90421,4.142685 q 0.81551,0.584558 1.76339,1.008042 0.95667,0.415042 2.05449,0.660566 0.26593,0.05691 0.26188,0.263573 -0.006,0.284165 -0.40169,0.27639 -0.90417,-0.01775 -2.52472,-0.842085 -1.34754,-0.68976 -3.07698,-2.110628 l -0.007,0.353055 -0.0201,1.464054 -0.0164,0.835275 -5.24415,-0.102941 0.008,-0.387499 0.0723,-2.806876 0.0917,-3.357816 0.0849,-5.201434 3.46165,0.06795 q 2.32499,0.04564 3.51079,0.198132 1.18579,0.152492 2.01414,0.521943 1.34939,0.595039 2.11609,1.910864 0.70828,1.21992 0.68225,2.546027 -0.0277,1.412218 -0.87029,2.644767 -1.35688,1.980521 -3.95996,2.05864 z m -0.80757,-0.549946 0.41316,0.01672 q 1.77388,0.03482 3.0161,-0.931452 0.78716,-0.604785 1.21875,-1.526669 0.40423,-0.844891 0.42164,-1.731833 0.0296,-1.506939 -0.92875,-2.714539 -0.73108,-0.936092 -1.8517,-1.337123 -1.12061,-0.401031 -3.16954,-0.467094 l -0.19075,5.767906 -0.0306,1.558607 6.7e-4,0.40489 q 0.5153,0.518365 1.10102,0.960582 z m 19.54799,5.804366 -0.11966,0.209379 -0.81301,1.440012 -0.10683,0.18695 -4.56147,-2.606752 0.26815,-0.451873 3.04156,-5.23554 1.3974,-2.514684 0.96257,-1.701738 0.16346,-0.303386 3.41736,1.952925 q 2.09379,1.196541 3.06803,1.991372 0.98173,0.799105 1.44961,1.681519 0.63238,1.184742 0.53832,2.599141 -0.0716,1.080028 -0.6015,2.007278 -0.57263,1.002028 -1.55761,1.649373 -1.17727,0.775535 -2.53184,0.785105 -1.34283,0.006 -2.67388,-0.754293 -0.49354,-0.282042 -1.34066,-0.934788 z m 4.50305,-7.862391 -0.28632,0.501013 -2.88451,4.97809 -1.04911,1.870523 q 0.501,0.49463 1.44321,1.033073 0.84499,0.48289 1.79255,0.577997 0.94756,0.09511 1.82143,-0.218938 1.48385,-0.530887 2.27015,-1.906806 0.74784,-1.308618 0.47227,-2.874725 -0.19652,-1.114221 -0.9945,-2.026558 -0.79797,-0.912336 -2.36084,-1.805469 z m 13.62512,10.107492 -1.35009,1.19109 -2.13729,1.91281 -1.53683,1.42072 -3.24612,3.02293 0.41272,0.4629 2.52925,2.68218 0.46034,0.48935 q 0.34341,0.37455 0.12122,0.57827 -0.1968,0.18043 -0.4021,-0.005 -0.0471,-0.0386 -0.28044,-0.28039 l -6.81575,-7.43392 2.42983,-2.19273 1.49081,-1.34347 1.68761,-1.523905 2.52876,-2.365217 0.55178,-0.494211 z m 9.77144,13.68735 -8.49477,11.4294 -2.46965,-5.43373 1.09632,-1.39704 -1.19741,-2.63453 -1.04701,-2.32446 -0.17035,-0.39561 -1.19179,-0.0827 q -0.5346,-0.0314 -0.67929,-0.0791 -0.14898,-0.0364 -0.20956,-0.16965 -0.12117,-0.26659 0.11406,-0.3735 0.10193,-0.0463 0.44407,-0.0221 0.35355,0.0285 2.323,0.2403 l 10.1459,1.1123 z m -6.24408,-0.10427 -2.93671,-0.32086 -2.40426,-0.23174 1.03776,2.36652 1.0962,2.34941 z m 4.77371,22.36139 1.43108,-0.14421 2.26915,-0.24598 1.03602,-0.11305 0.65041,-0.0742 q 0.46274,-0.0466 0.4947,0.27043 0.019,0.18853 -0.0855,0.26831 -0.0951,0.0875 -0.39499,0.11771 l -0.11997,0.0121 q -0.18082,0.01 -0.59215,0.051 l -2.89132,0.25674 -2.65052,0.24113 -2.78244,0.30636 -2.79016,0.31579 q 0.92756,-1.87668 2.52997,-5.47473 1.61099,-3.59892 2.51257,-5.81924 l -0.41904,0.0509 -4.41314,0.53128 -0.59042,0.0682 q -0.36848,0.0371 -0.40303,-0.30564 -0.0354,-0.35135 0.41877,-0.39711 l 0.60072,-0.0519 0.9692,-0.089 4.39953,-0.40873 5.91451,-0.66526 q -1.80117,3.68733 -5.09395,11.29915 z m 3.24743,12.9734 -2.63161,-0.58631 -2.50012,-0.54162 -5.80883,-1.17074 1.06045,-5.14564 6.71264,1.43615 2.29123,0.44581 1.94537,0.37453 0.20417,-1.1187 0.29482,-1.60125 0.0403,-0.23794 q 0.0834,-0.4049 0.38712,-0.34231 0.26993,0.0556 0.255,0.29877 0.003,0.071 -0.0599,0.41856 l -2.13306,10.35032 q -0.1197,0.53813 -0.18273,0.63067 -0.10226,0.1548 -0.32158,0.1096 -0.28681,-0.0591 -0.19815,-0.48932 l 0.17656,-0.72867 0.43358,-1.9332 z"
         id="text121"
         inkscape:label="texto peter plant"
         transform="matrix(0.96198254,-0.29602363,0.2981497,0.95512276,-35.86656,41.477407)"
         aria-label="PETER PLANT" /></g></g></svg>
